<svg width="20" height="20" viewBox="0 0 20 20" fill="none" xmlns="http://www.w3.org/2000/svg">
<path d="M12.1685 11.71L13.5685 9.29C13.6585 9.14 13.6185 8.95 13.4885 8.84L12.0085 7.68C12.0385 7.46 12.0585 7.23 12.0585 7C12.0585 6.77 12.0385 6.54 12.0085 6.31L13.4885 5.15C13.6185 5.04 13.6585 4.85 13.5685 4.7L12.1685 2.28C12.0785 2.13 11.8985 2.07 11.7385 2.13L9.99854 2.83C9.63854 2.55 9.24854 2.32 8.81854 2.14L8.55854 0.29C8.52854 0.13 8.37854 0 8.20854 0H5.40854C5.23854 0 5.08854 0.13 5.05854 0.3L4.79854 2.15C4.37854 2.33 3.97854 2.56 3.61854 2.84L1.87854 2.14C1.71854 2.08 1.53854 2.14 1.44854 2.29L0.0485385 4.71C-0.0414615 4.86 -0.00146136 5.05 0.128539 5.16L1.60854 6.32C1.57854 6.54 1.55854 6.77 1.55854 7C1.55854 7.23 1.57854 7.46 1.60854 7.69L0.128539 8.85C-0.00146136 8.96 -0.0414615 9.15 0.0485385 9.3L1.44854 11.72C1.53854 11.87 1.71854 11.93 1.87854 11.87L3.61854 11.17C3.97854 11.45 4.36854 11.68 4.79854 11.86L5.05854 13.71C5.08854 13.87 5.23854 14 5.40854 14H8.20854C8.37854 14 8.52854 13.87 8.55854 13.7L8.81854 11.85C9.23854 11.67 9.63854 11.44 9.99854 11.16L11.7385 11.86C11.8985 11.92 12.0785 11.86 12.1685 11.71ZM6.80854 9C5.70854 9 4.80854 8.1 4.80854 7C4.80854 5.9 5.70854 5 6.80854 5C7.90854 5 8.80854 5.9 8.80854 7C8.80854 8.1 7.90854 9 6.80854 9Z" fill="white"/>
<path d="M19.9186 16.67L18.9586 15.93C18.9786 15.79 18.9986 15.64 18.9986 15.49C18.9986 15.34 18.9886 15.19 18.9586 15.05L19.9086 14.31C19.9886 14.24 20.0186 14.12 19.9586 14.02L19.0586 12.47C19.0086 12.37 18.8886 12.34 18.7786 12.37L17.6686 12.82C17.4386 12.64 17.1886 12.49 16.9086 12.38L16.7386 11.2C16.7286 11.08 16.6286 11 16.5286 11H14.7386C14.6286 11 14.5286 11.08 14.5186 11.19L14.3486 12.37C14.0786 12.49 13.8186 12.63 13.5886 12.81L12.4786 12.36C12.3786 12.32 12.2586 12.36 12.1986 12.46L11.2986 14.01C11.2486 14.11 11.2586 14.23 11.3486 14.3L12.2986 15.04C12.2786 15.18 12.2686 15.33 12.2686 15.48C12.2686 15.63 12.2786 15.78 12.2986 15.92L11.3486 16.66C11.2686 16.73 11.2386 16.85 11.2986 16.95L12.1986 18.5C12.2486 18.6 12.3686 18.63 12.4786 18.6L13.5886 18.15C13.8186 18.33 14.0686 18.48 14.3486 18.59L14.5186 19.77C14.5386 19.88 14.6286 19.96 14.7386 19.96H16.5286C16.6386 19.96 16.7386 19.88 16.7486 19.77L16.9186 18.59C17.1886 18.47 17.4486 18.33 17.6686 18.15L18.7886 18.6C18.8886 18.64 19.0086 18.6 19.0686 18.5L19.9686 16.95C20.0286 16.86 19.9986 16.74 19.9186 16.67ZM15.6286 16.83C14.8886 16.83 14.2786 16.23 14.2786 15.48C14.2786 14.73 14.8786 14.13 15.6286 14.13C16.3786 14.13 16.9786 14.73 16.9786 15.48C16.9786 16.23 16.3686 16.83 15.6286 16.83Z" fill="white"/>
</svg>
