<svg width="44" height="30" viewBox="0 0 44 30" fill="none" xmlns="http://www.w3.org/2000/svg">
<path d="M43.6955 9.17031C43.5909 8.86582 43.2202 8.62902 42.9107 8.62902C41.5705 8.62902 40.2304 8.62902 38.8902 8.62902C38.5808 8.62902 38.21 8.86582 38.1053 9.17031C38.003 9.46833 37.9265 9.73423 37.8756 9.98431L35.19 2.55439C34.7471 1.32921 33.5739 0.506062 32.2713 0.506062H11.7308C10.428 0.506062 9.25514 1.32921 8.81196 2.55461L6.12624 9.9852C6.07528 9.7349 5.9988 9.46866 5.89634 9.17031C5.79176 8.86582 5.42094 8.62902 5.11155 8.62902C3.77142 8.62902 2.43129 8.62902 1.09105 8.62902C0.781656 8.62902 0.410834 8.86582 0.306255 9.17031C-0.100913 10.3558 -0.10069 11.0345 0.306366 12.2201C0.410946 12.5245 0.781767 12.7613 1.09116 12.7613C2.4314 12.7613 3.77153 12.7613 5.11166 12.7613C5.11545 12.7613 5.11947 12.7603 5.12337 12.7602L5.06272 12.9283C4.24292 13.2006 3.65101 13.9724 3.65101 14.8837V21.1055V21.6183V28.5031C3.65101 29.0504 4.09452 29.4939 4.64183 29.4939H9.62852C10.1757 29.4939 10.6194 29.0504 10.6194 28.5031V23.6797H33.3826V28.5031C33.3826 29.0504 33.8262 29.4939 34.3734 29.4939H39.3601C39.9075 29.4939 40.351 29.0504 40.351 28.5031V21.6183V21.1055V14.8837C40.351 13.9726 39.7593 13.201 38.9398 12.9284L38.8791 12.7602C38.8827 12.7603 38.8866 12.7612 38.8903 12.7612C40.2306 12.7612 41.5706 12.7612 42.9108 12.7612C43.2203 12.7612 43.591 12.5244 43.6956 12.2199C44.1027 11.0345 44.1024 10.3558 43.6955 9.17031ZM12.1102 4.15229H31.8891L35.0229 12.8221H8.97652L12.1102 4.15229ZM12.6619 18.9297H8.49008C7.59503 18.9297 6.86955 18.2043 6.86955 17.3092C6.86955 16.4143 7.59492 15.6887 8.49008 15.6887H12.6619C13.5568 15.6887 14.2824 16.4142 14.2824 17.3092C14.2825 18.2043 13.5568 18.9297 12.6619 18.9297ZM35.5116 18.9297H31.3398C30.4448 18.9297 29.7192 18.2043 29.7192 17.3092C29.7192 16.4143 30.4448 15.6887 31.3398 15.6887H35.5116C36.4066 15.6887 37.1321 16.4142 37.1321 17.3092C37.1321 18.2043 36.4066 18.9297 35.5116 18.9297Z" fill="#0097D8"/>
</svg>
