<svg width="27" height="27" viewBox="0 0 27 27" fill="none" xmlns="http://www.w3.org/2000/svg">
<path d="M18.5625 0H8.4375C3.77831 0 0 3.77831 0 8.4375V18.5625C0 23.2217 3.77831 27 8.4375 27H18.5625C23.2217 27 27 23.2217 27 18.5625V8.4375C27 3.77831 23.2217 0 18.5625 0ZM24.4688 18.5625C24.4688 21.8194 21.8194 24.4688 18.5625 24.4688H8.4375C5.18062 24.4688 2.53125 21.8194 2.53125 18.5625V8.4375C2.53125 5.18062 5.18062 2.53125 8.4375 2.53125H18.5625C21.8194 2.53125 24.4688 5.18062 24.4688 8.4375V18.5625Z" fill="white"/>
<path d="M13.5 6.75C9.77231 6.75 6.75 9.77231 6.75 13.5C6.75 17.2277 9.77231 20.25 13.5 20.25C17.2277 20.25 20.25 17.2277 20.25 13.5C20.25 9.77231 17.2277 6.75 13.5 6.75ZM13.5 17.7188C11.1746 17.7188 9.28125 15.8254 9.28125 13.5C9.28125 11.1729 11.1746 9.28125 13.5 9.28125C15.8254 9.28125 17.7188 11.1729 17.7188 13.5C17.7188 15.8254 15.8254 17.7188 13.5 17.7188Z" fill="white"/>
<path d="M20.7563 7.1432C21.2531 7.1432 21.6557 6.74051 21.6557 6.24376C21.6557 5.74702 21.2531 5.34433 20.7563 5.34433C20.2596 5.34433 19.8569 5.74702 19.8569 6.24376C19.8569 6.74051 20.2596 7.1432 20.7563 7.1432Z" fill="white"/>
</svg>
