<svg width="40" height="40" viewBox="0 0 40 40" fill="none" xmlns="http://www.w3.org/2000/svg">
<g clip-path="url(#clip0)">
<path d="M39.9313 6.03574C39.8683 5.59628 39.5628 5.23003 39.1417 5.08933C38.7228 4.94746 38.257 5.05839 37.9423 5.37199L36.2852 7.03027C35.3994 7.91605 33.8556 7.91605 32.9698 7.03027C32.0532 6.11371 32.0537 4.63199 32.9698 3.71605L34.6269 2.05894C34.9405 1.74535 35.0503 1.28074 34.9095 0.859568C34.7688 0.438396 34.4026 0.132849 33.9631 0.0699586C31.7762 -0.239026 29.5629 0.495662 27.9985 2.05777C26.2292 3.82816 25.5311 6.43058 26.1777 8.85097L8.85111 26.1769L8.84994 26.1757C6.43869 25.536 3.82142 26.2341 2.0579 27.9976C0.503764 29.5517 -0.240064 31.7822 0.0689201 33.9634C0.131889 34.4028 0.437436 34.7691 0.85853 34.9098C1.27626 35.0506 1.74314 34.9407 2.0579 34.6271L3.71501 32.9688C4.6008 32.0831 6.14462 32.0831 7.0304 32.9688C7.94697 33.8853 7.9465 35.367 7.0304 36.2831L5.3733 37.9402C5.0597 38.2538 4.94986 38.7184 5.09064 39.1396C5.23142 39.5607 5.59759 39.8663 6.03705 39.9292C8.2183 40.2396 10.4131 39.5285 12.0017 37.9413C13.771 36.171 14.4691 33.5685 13.8225 31.1481L31.1491 13.8222L31.1502 13.8234C33.5741 14.4654 36.1788 13.765 37.9423 12.0015C39.4964 10.4474 40.2402 8.21699 39.9313 6.03574Z" fill="black"/>
<path d="M32.9687 25.9375C32.4137 25.9375 31.8427 26.021 31.172 26.1984L26.63 21.657L21.6571 26.6293L26.1984 31.1709C26.021 31.8427 25.9375 32.4137 25.9375 32.9687C25.9375 36.846 29.0915 40 32.9687 40C36.846 40 40 36.846 40 32.9687C40 29.0915 36.846 25.9375 32.9687 25.9375ZM36.814 32.7341L36.117 35.3342C36.0083 35.7382 35.6924 36.0541 35.2885 36.1627L32.6884 36.8597C32.3065 36.965 31.8652 36.865 31.5566 36.5564L29.6535 34.6533C29.3571 34.3569 29.2416 33.9255 29.3502 33.5215L30.0472 30.9214C30.1559 30.5174 30.4718 30.2016 30.8757 30.0929L33.4758 29.3959C33.8775 29.2837 34.3101 29.4028 34.6076 29.6992L36.5107 31.6023C36.8071 31.8987 36.9227 32.3302 36.814 32.7341Z" fill="#0097D8"/>
<path d="M13.8209 8.78445C14.4675 6.36406 13.7693 3.76055 12.0001 1.99125C9.34395 -0.66375 4.7102 -0.66375 2.05638 1.99125C-0.684482 4.73328 -0.684482 9.19414 2.05638 11.935C3.81763 13.6963 6.42575 14.4046 8.84958 13.7558L13.3715 18.3423L18.3435 13.3709L13.8209 8.78445ZM10.7561 6.61125L10.0592 9.21133C9.95044 9.61531 9.63458 9.93117 9.23067 10.0398L6.63059 10.7368C6.24864 10.8421 5.80731 10.7421 5.4988 10.4335L3.59567 8.53039C3.29927 8.23398 3.18372 7.80258 3.29239 7.39859L3.98935 4.79852C4.09809 4.39453 4.41395 4.07867 4.81786 3.97L7.41794 3.27305C7.82192 3.1632 8.25333 3.27992 8.54974 3.57633L10.4529 5.47945C10.7493 5.77586 10.8648 6.20727 10.7561 6.61125Z" fill="#0097D8"/>
</g>
<defs>
<clipPath id="clip0">
<rect width="40" height="40" fill="white"/>
</clipPath>
</defs>
</svg>
