<svg width="27" height="27" viewBox="0 0 37 37" fill="none" xmlns="http://www.w3.org/2000/svg">
<path d="M18.4847 3.08333C9.97475 3.08333 3.0835 9.99 3.0835 18.5C3.0835 27.01 9.97475 33.9167 18.4847 33.9167C27.0102 33.9167 33.9168 27.01 33.9168 18.5C33.9168 9.99 27.0102 3.08333 18.4847 3.08333ZM18.5002 30.8333C11.686 30.8333 6.16683 25.3142 6.16683 18.5C6.16683 11.6858 11.686 6.16667 18.5002 6.16667C25.3143 6.16667 30.8335 11.6858 30.8335 18.5C30.8335 25.3142 25.3143 30.8333 18.5002 30.8333Z" fill="black"/>
<path d="M19.271 10.7917H16.9585V20.0417L25.0522 24.8979L26.2085 23.0017L19.271 18.8854V10.7917Z" fill="black"/>
</svg>
