<svg width="55" height="36" viewBox="0 0 55 36" fill="none" xmlns="http://www.w3.org/2000/svg">
<path d="M36.3662 8.93626C36.3662 8.92253 36.3662 8.90881 36.3662 8.89901C36.3662 8.24796 36.2929 7.6224 36.164 7.01057C35.3017 3.00229 31.748 0 27.5019 0C23.2207 0 19.6465 3.04349 18.8164 7.09685C18.7031 7.65769 18.6406 8.24209 18.6387 8.83822C18.6387 8.85782 18.6348 8.87939 18.6348 8.89901C18.6348 13.4093 21.9815 17.1294 26.3145 17.7118C26.7041 17.7627 27.0976 17.8 27.5019 17.8C27.8574 17.8 28.2012 17.7765 28.5439 17.7333C32.9346 17.2136 36.3457 13.4799 36.3662 8.93626Z" fill="#0097D8"/>
<path d="M47.8827 21.12L44.3231 25.8792L40.7635 21.12C40.3466 21.267 39.9492 21.4494 39.5546 21.6474C42.4081 24.5203 44.1796 28.4972 44.1796 32.9055V36H54.9999V31.3799C54.9999 26.6362 52.0253 22.6162 47.8827 21.12Z" fill="#0097D8"/>
<path d="M39.2764 9.02451C39.0635 9.27552 38.8702 9.53829 38.6973 9.81871C38.0508 10.8482 37.6699 12.0621 37.6699 13.3662C37.6699 13.7623 37.7091 14.1466 37.7754 14.5192C38.0069 15.8449 38.6211 17.0293 39.5059 17.9608C39.9659 18.4511 40.4981 18.8687 41.088 19.2021C42.0459 19.7374 43.1465 20.0434 44.3233 20.0434C47.9942 20.0434 50.9747 17.0548 50.9747 13.3662C50.9747 10.3168 48.9347 7.74595 46.1534 6.94782C45.917 6.88311 45.6749 6.83015 45.4317 6.787C45.2344 6.75564 45.0371 6.73211 44.837 6.71642C44.667 6.70465 44.4981 6.687 44.3233 6.687C42.3008 6.687 40.4961 7.5969 39.2764 9.02451Z" fill="#0097D8"/>
<path d="M7.11524 21.12L10.6768 25.8792L14.2363 21.12C14.6533 21.267 15.0508 21.4494 15.4453 21.6474C12.5889 24.5203 10.8193 28.4972 10.8193 32.9055V36H0V31.3799C0 26.6362 2.9746 22.6162 7.11524 21.12Z" fill="#0097D8"/>
<path d="M15.7227 9.02451C15.9356 9.27552 16.1309 9.53829 16.3047 9.81871C16.9492 10.8482 17.3281 12.0621 17.3281 13.3662C17.3281 13.7623 17.2891 14.1466 17.2227 14.5192C16.9932 15.8449 16.3789 17.0293 15.4942 17.9608C15.0332 18.4511 14.502 18.8687 13.9121 19.2021C12.9541 19.7374 11.8535 20.0434 10.6768 20.0434C7.00587 20.0434 4.02539 17.0548 4.02539 13.3662C4.02539 10.3168 6.06641 7.74595 8.84768 6.94782C9.08204 6.88311 9.32326 6.83015 9.57227 6.787C9.76172 6.75564 9.9629 6.73211 10.1631 6.71642C10.333 6.70465 10.502 6.687 10.6768 6.687C12.6973 6.687 14.5039 7.5969 15.7227 9.02451Z" fill="#0097D8"/>
<path d="M36.6601 21.82C35.7217 21.0121 34.6758 20.3316 33.5537 19.7884C33.1259 19.5805 32.6934 19.3923 32.2422 19.2276L31.0977 20.765L28.5439 24.1791L27.4971 25.5773L26.3145 23.9948L23.9375 20.8101L22.7578 19.2276C22.2871 19.4021 21.8272 19.6041 21.3789 19.8218C20.2568 20.3688 19.2168 21.0532 18.2773 21.871C17.7598 22.32 17.2734 22.8123 16.8252 23.3339C14.6172 25.8832 13.2686 29.2307 13.2686 32.9055V36H41.7314V32.9055C41.7314 29.2012 40.3633 25.8342 38.1211 23.2672C37.6699 22.7515 37.1817 22.2691 36.6601 21.82Z" fill="#0097D8"/>
</svg>
